# xmcd CD database file
#
# Track frame offsets:
#	182
#	16622
#	29420
#	44110
#	63712
#	79760
#	92315
#	101307
#	120240
#	137617
#	150930
#	160837
#	179487
#	191210
#
# Disc length: 2783 seconds
#
# Revision: 2
# Processed by: cddbd v1.4PL0 Copyright (c) Steve Scherf et al.
# Submitted via: CDex 1.50Beta7
#
DISCID=a70add0e
DTITLE=Ray Charles - Ray Charles
DYEAR=1900
DGENRE=
TTITLE0=Georgia on my Mind
TTITLE1=Unchain My Heart
TTITLE2=You Don t Know Me
TTITLE3=That Lucky Old Sun
TTITLE4=Your Cheating Heart
TTITLE5=Yesterday
TTITLE6=Hit The Road Jack
TTITLE7=I Can t Stop Loving You
TTITLE8=Ruby
TTITLE9=Eleanor Rigby
TTITLE10=Hey Good Lookin 
TTITLE11=(Somewhere) Over The Rainbow
TTITLE12=Dont t Set Me Free
TTITLE13=You ll Never Walk Alone
EXTD=
EXTT0=(Gorel/H.Carmichael]\n
EXTT1=R. Sharpe/T. Powell\n
EXTT2=C. Walker/E. Arnold\n
EXTT3=R. Smith/H. Gillespie\n
EXTT4=
EXTT5=
EXTT6=
EXTT7=
EXTT8=
EXTT9=
EXTT10=
EXTT11=
EXTT12=
EXTT13=
PLAYORDER=
